<svg width="28" height="28" viewBox="0 0 28 28" fill="none" xmlns="http://www.w3.org/2000/svg">
<g id="local_offer" clip-path="url(#clip0_92_554)">
<path id="Vector" d="M3.02167 13.5099L13.5217 3.00992C13.9417 2.58992 14.525 2.33325 15.1667 2.33325H23.3333C24.6167 2.33325 25.6667 3.38325 25.6667 4.66659V12.8333C25.6667 13.4749 25.41 14.0583 24.9783 14.4899L14.4783 24.9899C14.0583 25.4099 13.475 25.6666 12.8333 25.6666C12.1917 25.6666 11.6083 25.4099 11.1883 24.9783L3.02167 16.8116C2.59001 16.3916 2.33334 15.8083 2.33334 15.1666C2.33334 14.5249 2.60167 13.9299 3.02167 13.5099ZM21.5833 8.16658C22.5517 8.16658 23.3333 7.38492 23.3333 6.41658C23.3333 5.44825 22.5517 4.66659 21.5833 4.66659C20.615 4.66659 19.8333 5.44825 19.8333 6.41658C19.8333 7.38492 20.615 8.16658 21.5833 8.16658Z" fill="#D9145D"/>
</g>
<defs>
<clipPath id="clip0_92_554">
<rect width="28" height="28" fill="white" transform="matrix(-1 0 0 1 28 0)"/>
</clipPath>
</defs>
</svg>
